# Alias OBJ Model File
# Exported from SketchUp, (c) 2000-2012 Trimble Navigation Limited
# File units = meters

v -1.02799 -1.15 0.389868
vt 40.4722 -45.2756
vn 8.12938e-016 3.56805e-033 -1
v -1.47201 -1.35 0.389868
vt 57.953 -53.1496
v -1.47201 -1.15 0.389868
vt 57.953 -45.2756
f 1/1/1 2/2/1 3/3/1

v -1.02799 -1.35 0.389868
vt 40.4722 -53.1496
f 2/2/1 1/1/1 4/4/1

vt 45.2756 -29.9509
vn -0.429666 -1.86958e-016 0.902988
v -1.25 -1.35 0.284232
vt 53.1496 -39.6303
vt 53.1496 -29.9509
f 1/5/2 5/6/2 4/7/2

v -1.25 -1.15 0.284232
vt 45.2756 -39.6303
f 5/6/2 1/5/2 6/8/2

v -0.890833 -1.15 0.366538
vt 35.0722 14.4306
vn 4.8694e-016 1 -1.48332e-016
vt 49.2126 11.1902
vt 40.4722 15.3491
f 7/9/3 6/10/3 1/11/3

v -1.1569 -1.15 0.239934
vt 45.5474 9.44623
f 6/10/3 7/9/3 8/12/3

vt -45.2756 -25.4694
vn 0.429666 1.75807e-015 -0.902988
v -1.1569 -1.35 0.239934
vt -53.1496 -37.0701
vt -45.2756 -37.0701
f 7/13/4 9/14/4 8/15/4

v -0.890833 -1.35 0.366538
vt -53.1496 -25.4694
f 9/14/4 7/13/4 10/16/4

v -0.890833 -1.15 0.11333
vt 45.2756 4.46183
vn -1 -3.60956e-015 2.55238e-030
vt 53.1496 14.4306
vt 45.2756 14.4306
f 11/17/5 10/18/5 7/19/5

v -0.890833 -1.35 0.11333
vt 53.1496 4.46183
f 10/18/5 11/17/5 12/20/5

vt -45.2756 33.5869
vn 0.429666 2.2751e-015 0.902988
vt -53.1496 45.1875
vt -53.1496 33.5869
f 11/21/6 9/22/6 12/23/6

vt -45.2756 45.1875
f 9/22/6 11/21/6 8/24/6

vt 35.0722 4.46183
v -1.25 -1.15 0.195637
vt 49.2126 7.70223
f 11/25/3 13/26/3 8/12/3

v -1.02799 -1.15 0.09
vt 40.4722 3.54331
f 13/26/3 11/25/3 14/27/3

v -0.420276 -1.15 0.05
vt 16.5463 1.9685
f 11/25/3 15/28/3 14/27/3

v -0.298631 -1.15 0.779868
vt 11.7571 30.7035
f 15/28/3 11/25/3 16/29/3

f 16/29/3 11/25/3 7/9/3

v -0.850833 -1.15 0.429868
vt 33.4974 16.9239
f 16/29/3 7/9/3 17/30/3

f 17/30/3 7/9/3 1/11/3

v -1.64917 -1.15 0.429868
vt 64.9278 16.9239
f 17/30/3 1/11/3 18/31/3

vt 57.953 15.3491
f 3/32/3 18/31/3 1/11/3

v -1.60917 -1.15 0.366538
vt 63.353 14.4306
f 19/33/3 18/31/3 3/32/3

v -2.20137 -1.15 0.779868
vt 86.6681 30.7035
f 19/33/3 20/34/3 18/31/3

v -1.60917 -1.15 0.11333
vt 63.353 4.46183
f 21/35/3 20/34/3 19/33/3

v -2.07972 -1.15 0.05
vt 81.8789 1.9685
f 21/35/3 22/36/3 20/34/3

v -1.47201 -1.15 0.09
vt 57.953 3.54331
f 22/36/3 21/35/3 23/37/3

f 21/35/3 13/26/3 23/37/3

v -1.3431 -1.15 0.239934
vt 52.8778 9.44623
f 13/26/3 21/35/3 24/38/3

vt 45.2756 -55.2899
vn -0.429666 6.07846e-031 0.902988
v -1.3431 -1.35 0.239934
vt 53.1496 -43.6893
vt 45.2756 -43.6893
f 21/39/7 25/40/7 24/41/7

v -1.60917 -1.35 0.11333
vt 53.1496 -55.2899
f 25/40/7 21/39/7 26/42/7

vt -45.2756 4.46183
vn 1 0 0
v -1.60917 -1.35 0.366538
vt -53.1496 14.4306
vt -53.1496 4.46183
f 21/43/8 27/44/8 26/45/8

vt -45.2756 14.4306
f 27/44/8 21/43/8 19/46/8

vt 45.2756 51.8067
vn -0.429666 1.83827e-031 -0.902988
vt 53.1496 63.4074
vt 45.2756 63.4074
f 24/47/9 27/48/9 19/49/9

vt 53.1496 51.8067
f 27/48/9 24/47/9 25/50/9

vt -49.2126 11.1902
vn -9.23267e-016 -1 1.83084e-016
vt -63.353 14.4306
vt -52.8778 9.44623
f 5/51/10 27/52/10 25/53/10

vt -57.953 15.3491
f 27/52/10 5/51/10 2/54/10

vt -53.1496 49.2464
vn 0.429666 5.84245e-016 0.902988
vt -45.2756 58.9259
vt -53.1496 58.9259
f 5/55/11 3/56/11 2/57/11

vt -45.2756 49.2464
f 3/56/11 5/55/11 6/58/11

f 6/10/3 19/33/3 3/32/3

f 8/12/3 19/33/3 6/10/3

f 8/12/3 24/38/3 19/33/3

f 8/12/3 13/26/3 24/38/3

v -1.64917 -1.35 0.429868
vt -64.9278 16.9239
f 28/59/10 27/52/10 2/54/10

v -2.20137 -1.35 0.779868
vt -86.6681 30.7035
f 29/60/10 27/52/10 28/59/10

vt -63.353 4.46183
f 29/60/10 26/61/10 27/52/10

v -2.07972 -1.35 0.05
vt -81.8789 1.9685
f 30/62/10 26/61/10 29/60/10

v -1.47201 -1.35 0.09
vt -57.953 3.54331
f 26/61/10 30/62/10 31/63/10

v -0.420276 -1.35 0.05
vt -16.5463 1.9685
f 31/63/10 30/62/10 32/64/10

vt 16.5463 -53.1496
vn 6.75485e-018 -3.21314e-017 -1
v -2.07972 -1.4 0.05
vt 81.8789 -55.1181
vt 81.8789 -53.1496
f 32/65/12 33/66/12 30/67/12

v -0.420276 -1.4 0.05
vt 16.5463 -55.1181
f 34/68/12 33/66/12 32/65/12

v -0.4 -2.5 0.05
vt 15.748 -98.4252
f 35/69/12 33/66/12 34/68/12

v -2.1 -2.5 0.05
vt 82.6772 -98.4252
f 36/70/12 33/66/12 35/69/12

v -2.1 -1.4 0.05
vt 82.6772 -55.1181
f 33/66/12 36/70/12 37/71/12

vt -55.1181 15.5338
vn 0.986394 4.74633e-018 0.164399
v -2.3 -2.5 1.25
vt -98.4252 63.4295
vt -98.4252 15.5338
f 37/72/13 38/73/13 36/74/13

v -2.2233 -1.4 0.789795
vt -55.1181 45.0613
f 38/73/13 37/72/13 39/75/13

vn 0 -1 0
vt -87.5315 31.0943
vt -82.6772 1.9685
f 33/62/14 39/76/14 37/77/14

v -2.20357 -1.4 0.793083
vt -86.7548 31.2238
f 39/76/14 33/62/14 40/78/14

vt -53.1496 15.4025
vn 0.986394 -7.66543e-016 0.164399
vt -55.1181 15.4025
f 30/79/15 40/75/15 33/80/15

vt -53.1496 44.5339
f 40/75/15 30/79/15 29/81/15

v -2.22493 -1.325 0.92122
vt -52.1654 50.1756
f 40/75/15 29/81/15 41/82/15

v -2.21671 -1.29613 0.8719
vt -51.0288 48.2071
f 41/82/15 29/81/15 42/83/15

vt -100.011 21.7205
vn 0.319311 -0.793692 0.517778
vt -100.243 17.4853
vn 0.312211 -0.80805 0.49958
v -1.64917 -1.29613 0.5219
vt -79.2818 5.61383
f 42/84/16 29/85/17 43/86/17

vt -99.7432 17.4462
vt -79.3604 1.72824
vn 0.304927 -0.821933 0.481089
vt -78.6227 5.86126
f 29/87/17 28/88/18 43/89/17

v -0.850833 -1.35 0.429868
vt -33.4974 -12.2424
vn 1.99738e-015 -0.863034 0.505146
vt -64.9278 -8.04404
vt -64.9278 -12.2424
f 44/90/19 43/91/19 28/92/19

v -0.850833 -1.29613 0.5219
vt -33.4974 -8.04404
f 43/91/19 44/90/19 45/93/19

v -0.298631 -1.35 0.779868
vt 7.46363 0.976391
vn -0.312211 -0.80805 0.49958
vt -13.6568 -10.6086
vt -12.9192 -14.7416
vn -0.304927 -0.821933 0.481089
f 46/94/20 45/95/20 44/96/21

v -0.283293 -1.29613 0.8719
vt 8.69866 2.69942
vn -0.319311 -0.793692 0.517778
vt -12.0308 -13.4073
vt 8.92997 -1.5358
f 47/97/22 45/98/20 46/99/20

vt 51.0288 8.52515
vn -0.524907 -9.97517e-015 0.85116
v -0.850833 -1.20387 0.5219
vt 47.3964 -17.7262
vt 51.0288 -17.7262
f 47/100/23 48/101/23 45/102/23

v -0.283293 -1.20387 0.8719
vt 47.3964 8.52515
f 48/101/23 47/100/23 49/103/23

vt 51.0288 32.0261
vn -0.986394 -6.73315e-017 0.164399
v -0.275073 -1.175 0.92122
vt 46.2598 33.9946
vt 47.3964 32.0261
f 47/104/24 50/105/24 49/106/24

v -0.275073 -1.325 0.92122
vt 52.1654 33.9946
f 47/104/24 51/107/24 50/105/24

vt 53.1496 28.3529
f 46/108/24 51/107/24 47/104/24

v -0.296429 -1.4 0.793083
vt 55.1181 28.8803
f 46/108/24 52/109/24 51/107/24

vt 55.1181 -0.778474
f 52/109/24 46/108/24 34/110/24

vt 53.1496 -0.778474
f 34/110/24 46/108/24 32/111/24

vt -35.0722 4.46183
vt -11.7571 30.7035
f 12/112/10 32/64/10 46/113/10

v -1.02799 -1.35 0.09
vt -40.4722 3.54331
f 32/64/10 12/112/10 53/114/10

v -1.25 -1.35 0.195637
vt -49.2126 7.70223
f 12/112/10 54/115/10 53/114/10

vt -45.5474 9.44623
f 54/115/10 12/112/10 9/116/10

f 25/53/10 54/115/10 9/116/10

f 26/61/10 54/115/10 25/53/10

f 54/115/10 26/61/10 31/63/10

vt -45.2756 -50.8084
vn 0.429666 -2.04384e-015 -0.902988
vt -53.1496 -41.129
vt -53.1496 -50.8084
f 23/117/25 54/118/25 31/119/25

vt -45.2756 -41.129
f 54/118/25 23/117/25 13/120/25

vt 45.2756 38.0683
vn -0.429666 -2.05115e-015 -0.902988
vt 53.1496 47.7478
vt 45.2756 47.7478
f 14/121/26 54/122/26 13/123/26

vt 53.1496 38.0683
f 54/122/26 14/121/26 53/124/26

vt -57.953 -45.2756
vn 1.27022e-017 2.11497e-015 1
vt -40.4722 -53.1496
vt -40.4722 -45.2756
f 23/125/27 53/126/27 14/127/27

vt -57.953 -53.1496
f 53/126/27 23/125/27 31/128/27

f 31/63/10 32/64/10 53/114/10

f 14/27/3 22/36/3 23/37/3

f 14/27/3 15/28/3 22/36/3

vt 16.5463 -45.2756
vn -1.95165e-017 -9.14279e-018 -1
vt 81.8789 -45.2756
v -0.420276 -1.1 0.05
vt 16.5463 -43.3071
f 15/129/28 22/130/28 55/131/28

v -0.4 -1.44382e-015 0.05
vt 15.748 -5.68614e-014
f 22/130/28 56/132/28 55/131/28

v -2.07972 -1.1 0.05
vt 81.8789 -43.3071
f 57/133/28 56/132/28 22/130/28

v -2.1 -1.1 0.05
vt 82.6772 -43.3071
f 58/134/28 56/132/28 57/133/28

v -2.1 0 0.05
vt 82.6772 -1.79976e-017
f 56/132/28 58/134/28 59/135/28

vt 3.97826e-016 15.5338
v -2.2233 -1.1 0.789795
vt -43.3071 45.0613
vt -43.3071 15.5338
f 59/136/13 60/137/13 58/138/13

v -2.3 0 1.25
vt 4.35714e-016 63.4295
f 61/139/13 60/137/13 59/136/13

v -2.24466 -1.175 0.917932
vt -46.2598 50.1756
f 61/139/13 62/140/13 60/137/13

v -2.24466 -1.325 0.917932
f 61/139/13 63/82/13 62/140/13

f 38/73/13 63/82/13 61/139/13

f 38/73/13 39/75/13 63/82/13

vt -81.1584 -3.94337
vn -0.0821995 -0.866025 0.493197
vt -83.0477 1.70693
vt -81.9317 -4.09217
f 40/141/29 63/142/29 39/143/29

vt -82.2745 1.85573
f 63/142/29 40/141/29 41/144/29

vt 52.1654 -80.4412
vn -0.164399 0 0.986394
vt 46.2598 -81.2286
vt 52.1654 -81.2286
f 41/145/30 62/146/30 63/147/30

v -2.22493 -1.175 0.92122
vt 46.2598 -80.4412
f 62/146/30 41/145/30 64/148/30

f 41/82/15 42/83/15 64/140/15

v -2.21671 -1.20387 0.8719
vt -47.3964 48.2071
f 64/140/15 42/83/15 65/149/15

vt -51.0288 66.0493
vn 0.524907 -1.554e-014 0.85116
vt -47.3964 92.3007
vt -51.0288 92.3007
f 43/150/31 65/151/31 42/152/31

v -1.64917 -1.20387 0.5219
vt -47.3964 66.0493
f 65/151/31 43/150/31 66/153/31

vt -64.9278 -51.0288
vn -4.80395e-015 -4.45009e-014 1
vt -33.4974 -47.3964
vt -64.9278 -47.3964
f 43/154/32 48/155/32 66/156/32

vt -33.4974 -51.0288
f 48/155/32 43/154/32 45/157/32

vt 33.4974 37.4767
vn -6.33885e-015 0.863034 0.505146
vt 64.9278 41.675
vt 33.4974 41.675
f 17/158/33 66/159/33 48/160/33

vt 64.9278 37.4767
f 66/159/33 17/158/33 18/161/33

vt 65.5086 61.8409
vn 0.312211 0.80805 0.49958
vt 44.3882 50.2559
vt 45.1259 46.1229
vn 0.304927 0.821933 0.481089
f 20/162/34 66/163/34 18/164/35

vt 63.2751 69.0001
vn 0.319311 0.793692 0.517778
vt 42.5457 52.8934
vt 63.5064 64.7649
f 65/165/36 66/166/34 20/167/34

vt -45.2756 44.5339
f 64/140/15 65/149/15 20/168/15

v -2.20357 -1.1 0.793083
f 64/140/15 20/168/15 67/137/15

vt -43.3071 15.4025
f 67/137/15 20/168/15 57/169/15

vt -45.2756 15.4025
f 57/169/15 20/168/15 22/170/15

vt 82.6772 1.9685
vn 0 1 0
vt 86.7548 31.2238
f 58/171/37 67/172/37 57/36/37

vt 87.5315 31.0943
f 67/172/37 58/171/37 60/173/37

vt 92.348 50.0327
vn -0.0821995 0.866025 0.493197
vt 90.4587 44.3824
vt 91.232 44.2336
f 62/174/38 67/175/38 60/176/38

vt 91.5748 50.1815
f 67/175/38 62/174/38 64/177/38

vt 26.7709 45.3711
vn -0.312211 0.80805 0.49958
vt 47.1537 29.6531
vn -0.304927 0.821933 0.481089
vt 47.8913 33.7861
f 16/178/39 17/179/40 48/180/39

vt 28.0374 49.979
vn -0.319311 0.793692 0.517778
vt 27.8061 45.7438
vt 48.7668 33.8723
f 49/181/41 16/182/39 48/183/39

vt 45.2756 28.3529
f 49/106/24 50/105/24 16/184/24

v -0.296429 -1.1 0.793083
vt 43.3071 28.8803
f 16/184/24 50/105/24 68/185/24

v -0.255345 -1.175 0.917932
vt 5.63682 54.6196
vn 0.0821995 0.866025 0.493197
vt 7.52607 48.9693
vt 6.41003 54.7684
f 69/186/42 68/187/42 50/188/42

v -0.276701 -1.1 0.789795
vt 6.75285 48.8205
f 68/187/42 69/186/42 70/189/42

vn -0.986394 3.79706e-018 0.164399
v -0.2 -1.44382e-015 1.25
vt 5.68737e-014 47.2485
f 69/105/43 71/190/43 70/185/43

v -0.255345 -1.325 0.917932
f 72/107/43 71/190/43 69/105/43

v -0.2 -2.5 1.25
vt 98.4252 47.2485
f 72/107/43 73/191/43 71/190/43

vt 98.4252 -0.64724
f 73/191/43 72/107/43 35/192/43

v -0.276701 -1.4 0.789795
f 35/192/43 72/107/43 74/109/43

vt -14.9371 6.29381
vn 0.0821995 -0.866025 0.493197
vt -16.8264 0.643516
vt -16.0532 0.494711
f 72/193/44 52/194/44 74/195/44

vt -15.7103 6.44261
f 52/194/44 72/193/44 51/196/44

vt -52.1654 15.8574
vn 0.164399 0 0.986394
vt -46.2598 16.6448
vt -52.1654 16.6448
f 72/197/45 50/198/45 51/199/45

vt -46.2598 15.8574
f 50/198/45 72/197/45 69/200/45

vt -11.6704 31.2238
v -0.4 -1.4 0.05
vt -15.748 1.9685
vt -10.8937 31.0943
f 52/201/14 75/202/14 74/203/14

f 75/202/14 52/201/14 34/64/14

vt 15.748 -55.1181
f 35/69/12 34/68/12 75/204/12

vt 55.1181 -0.64724
f 75/205/43 35/192/43 74/109/43

v 0 -2.5 0
vt 0 0
vt -7.87402 49.2126
f 35/202/14 76/206/14 73/207/14

v -2.5 -2.5 0
vt -98.4252 0
f 76/206/14 35/202/14 77/208/14

f 36/77/14 77/208/14 35/202/14

vt -90.5512 49.2126
f 38/209/14 77/208/14 36/77/14

v -2.5 -2.5 2.5
vt -98.4252 98.4252
f 77/208/14 38/209/14 78/210/14

v -2.1 -2.5 2.45
vt -82.6772 96.4567
f 78/210/14 38/209/14 79/211/14

vt -98.4252 33.6565
vn 0.986394 0 -0.164399
v -2.26712 -2.3 1.44728
vt -90.5512 41.5305
vt -98.4252 81.5523
f 38/212/46 80/213/46 79/214/46

vt 0 33.6565
f 80/213/46 38/212/46 61/215/46

v -2.26712 -0.2 1.44728
vt -7.87402 41.5305
f 80/213/46 61/215/46 81/216/46

v -2.13288 -0.2 2.25272
vt -7.87402 73.6782
f 81/216/46 61/215/46 82/217/46

v -2.1 0 2.45
vt 0 81.5523
f 83/218/46 82/217/46 61/215/46

v -2.13288 -2.3 2.25272
vt -90.5512 73.6782
f 83/218/46 84/219/46 82/217/46

f 79/214/46 84/219/46 83/218/46

f 84/219/46 79/214/46 80/213/46

v -2.36576 -2.3 1.46372
vt 93.1401 57.6267
vn -7.26723e-017 1 -4.36034e-016
vt 83.9716 88.6898
vt 89.2567 56.9795
f 85/220/47 84/221/47 80/222/47

v -2.23152 -2.3 2.26916
vt 87.8551 89.3371
f 84/221/47 85/220/47 86/223/47

v -2.36576 -0.2 1.46372
vn 0.986394 -6.83562e-019 -0.164399
f 87/216/48 86/219/48 85/213/48

v -2.23152 -0.2 2.26916
f 86/219/48 87/216/48 88/217/48

vt -93.1401 57.6267
vt -83.9716 88.6898
vt -87.8551 89.3371
f 87/224/14 82/225/14 88/226/14

vt -89.2567 56.9795
f 82/225/14 87/224/14 81/227/14

vt -7.87402 101.347
vt -90.5512 97.4096
vt -7.87402 97.4096
f 87/228/45 80/229/45 81/230/45

vt -90.5512 101.347
f 80/229/45 87/228/45 85/231/45

vt 7.87402 97.4096
vn -0.164399 0 -0.986394
vt 90.5512 101.347
vt 7.87402 101.347
f 82/232/49 86/233/49 88/234/49

vt 90.5512 97.4096
f 86/233/49 82/232/49 84/235/49

v -0.4 0 2.45
vt 15.748 0
vn 0 0 -1
vt 82.6772 0
f 89/236/50 79/70/50 83/237/50

v -0.4 -2.5 2.45
f 79/70/50 89/236/50 90/69/50

v -0.36712 -2.3 2.25272
vt 90.5512 89.8592
vn -0.986394 1.46223e-031 -0.164399
vt 98.4252 97.7333
vt 2.33448e-030 97.7333
f 91/238/51 90/239/51 89/240/51

vt 98.4252 49.8375
f 90/239/51 91/238/51 73/241/51

v -0.23288 -2.3 1.44728
vt 90.5512 57.7115
f 92/242/51 73/241/51 91/238/51

vt 5.68434e-014 49.8375
f 73/241/51 92/242/51 71/243/51

v -0.23288 -0.2 1.44728
vt 7.87402 57.7115
f 71/243/51 92/242/51 93/244/51

v -0.13424 -2.3 1.46372
vt 90.5512 4.26063
vt 7.87402 0.32362
vt 90.5512 0.32362
f 94/245/30 93/246/30 92/247/30

v -0.13424 -0.2 1.46372
vt 7.87402 4.26063
f 93/246/30 94/245/30 95/248/30

vn -0.986394 6.83562e-019 -0.164399
v -0.268481 -0.2 2.26916
vt 7.87402 89.8592
f 94/242/52 96/249/52 95/244/52

v -0.268481 -2.3 2.26916
f 96/249/52 94/242/52 97/238/52

vt 5.28506 57.6267
vt 14.4536 88.6898
vt 10.5701 89.3371
f 94/250/37 91/251/37 97/252/37

vt 9.1685 56.9795
f 91/251/37 94/250/37 92/253/37

vt -90.5512 0.32362
vn 0.164399 0 -0.986394
vt -7.87402 4.26063
vt -90.5512 4.26063
f 91/254/53 96/255/53 97/256/53

v -0.36712 -0.2 2.25272
vt -7.87402 0.32362
f 96/255/53 91/254/53 98/257/53

f 91/238/51 89/240/51 98/249/51

f 98/249/51 89/240/51 71/243/51

v 0 0 2.5
vt 0 98.4252
vt 7.87402 49.2126
vt 15.748 96.4567
f 99/258/37 71/259/37 89/260/37

v 0 0 0
f 100/206/37 71/259/37 99/258/37

vt 15.748 1.9685
f 71/259/37 100/206/37 56/261/37

f 100/206/37 59/171/37 56/261/37

v -2.5 0 0
vt 98.4252 0
f 101/262/37 59/171/37 100/206/37

vt 90.5512 49.2126
f 59/171/37 101/262/37 61/263/37

v -2.5 0 2.5
vt 98.4252 98.4252
f 61/263/37 101/262/37 102/264/37

vn -1 0 0
f 77/262/54 102/258/54 101/206/54

f 102/258/54 77/262/54 78/264/54

v 0 -2.5 2.5
vt 0 -98.4252
vn 0 0 1
vt -98.4252 -98.4252
f 103/265/55 102/208/55 78/266/55

f 102/208/55 103/265/55 99/206/55

f 103/210/8 100/206/8 99/258/8

f 100/206/8 103/210/8 76/208/8

f 73/207/14 76/206/14 103/258/14

vt -15.748 96.4567
f 73/207/14 103/258/14 90/267/14

f 90/267/14 103/258/14 79/211/14

f 78/210/14 79/211/14 103/258/14

f 99/258/37 89/260/37 102/264/37

vt 82.6772 96.4567
f 83/268/37 102/264/37 89/260/37

f 61/263/37 102/264/37 83/268/37

v -0.4 -1.1 0.05
vt 43.3071 -0.64724
vt 5.6904e-014 -0.64724
f 104/269/43 71/190/43 56/270/43

f 70/185/43 71/190/43 104/269/43

vt 10.8937 31.0943
f 55/28/37 70/271/37 104/261/37

vt 11.6704 31.2238
f 70/271/37 55/28/37 68/272/37

vt 45.2756 -0.778474
vt 43.3071 -0.778474
f 15/273/24 68/185/24 55/274/24

f 16/184/24 68/185/24 15/273/24

vt 15.748 -43.3071
f 55/131/28 56/132/28 104/275/28

f 71/243/51 93/244/51 98/249/51

vt -5.28506 57.6267
vn -1.45345e-016 -1 8.72068e-016
vt -14.4536 88.6898
vt -9.1685 56.9795
f 95/276/56 98/277/56 93/278/56

vt -10.5701 89.3371
f 98/277/56 95/276/56 96/279/56

vt -35.0722 14.4306
f 25/53/10 9/116/10 10/280/10

f 25/53/10 10/280/10 5/51/10

vt -40.4722 15.3491
f 5/51/10 10/280/10 4/281/10

vt -33.4974 16.9239
f 10/280/10 44/282/10 4/281/10

f 10/280/10 46/113/10 44/282/10

f 12/112/10 46/113/10 10/280/10

f 4/281/10 44/282/10 28/59/10

f 28/59/10 2/54/10 4/281/10

