v -1.000000 0.000000 1.000000
v 1.000000 0.000000 1.000000
v 0.000000 0.000000 0.000000
v 1.000000 0.000000 0.000000
v -1.000000 -1.000000 -0.000000
v 1.000000 -1.000000 -0.000000
v -1.000000 1.000000 0.000000
v 1.000000 1.000000 0.000000
vt 0.045455 0.522727
vt 0.954545 0.522727
vt 0.954545 0.977273
vt 0.045455 0.477273
vt 0.045455 0.022727
vt 0.954545 0.022727
vt 0.045455 0.977273
vt 0.954545 0.477273
vn 0.000000 1.000000 0.000000
vn 0.000000 -0.000000 1.000000
s off
f 2/1/1 4/2/1 3/3/1
f 6/4/2 8/5/2 7/6/2
