# Blender v2.76 (sub 0) OBJ File: ''
# www.blender.org
o Cube
v 1.000000 0.000000 -1.000000
v 1.000000 0.000000 0.000000
v -0.000000 0.000000 -0.000000
v 0.000000 0.000000 -1.000000
v 1.000000 1.000000 -1.000000
v 1.000000 1.000000 0.000000
v -0.000000 1.000000 -0.000000
v 0.000000 1.000000 -1.000000
v 1.000000 0.000000 -0.800000
v 1.000000 0.000000 -0.600000
v 1.000000 0.000000 -0.400000
v 1.000000 0.000000 -0.200000
v 0.800000 0.000000 -1.000000
v 0.600000 0.000000 -1.000000
v 0.400000 0.000000 -1.000000
v 0.200000 0.000000 -1.000000
v 1.000000 0.200000 -1.000000
v 1.000000 0.400000 -1.000000
v 1.000000 0.600000 -1.000000
v 1.000000 0.800000 -1.000000
v 0.800000 0.000000 -0.000000
v 0.600000 0.000000 -0.000000
v 0.400000 0.000000 -0.000000
v 0.200000 0.000000 -0.000000
v 1.000000 0.200000 0.000000
v 1.000000 0.400000 0.000000
v 1.000000 0.600000 0.000000
v 1.000000 0.800000 0.000000
v 0.000000 0.000000 -0.200000
v 0.000000 0.000000 -0.400000
v 0.000000 0.000000 -0.600000
v 0.000000 0.000000 -0.800000
v -0.000000 0.200000 -0.000000
v -0.000000 0.400000 -0.000000
v -0.000000 0.600000 -0.000000
v -0.000000 0.800000 -0.000000
v 0.000000 0.200000 -1.000000
v 0.000000 0.400000 -1.000000
v 0.000000 0.600000 -1.000000
v 0.000000 0.800000 -1.000000
v 1.000000 1.000000 -0.800000
v 1.000000 1.000000 -0.600000
v 1.000000 1.000000 -0.400000
v 1.000000 1.000000 -0.200000
v 0.800000 1.000000 -1.000000
v 0.600000 1.000000 -1.000000
v 0.400000 1.000000 -1.000000
v 0.200000 1.000000 -1.000000
v 0.800000 1.000000 0.000000
v 0.600000 1.000000 0.000000
v 0.400000 1.000000 0.000000
v 0.200000 1.000000 -0.000000
v -0.000000 1.000000 -0.200000
v -0.000000 1.000000 -0.400000
v 0.000000 1.000000 -0.600000
v 0.000000 1.000000 -0.800000
v 0.800000 0.800000 -1.000000
v 0.600000 0.800000 -1.000000
v 0.400000 0.800000 -1.000000
v 0.200000 0.800000 -1.000000
v 0.800000 0.600000 -1.000000
v 0.600000 0.600000 -1.000000
v 0.400000 0.600000 -1.000000
v 0.200000 0.600000 -1.000000
v 0.800000 0.400000 -1.000000
v 0.600000 0.400000 -1.000000
v 0.400000 0.400000 -1.000000
v 0.200000 0.400000 -1.000000
v 0.800000 0.200000 -1.000000
v 0.600000 0.200000 -1.000000
v 0.400000 0.200000 -1.000000
v 0.200000 0.200000 -1.000000
v 0.000000 0.200000 -0.200000
v 0.000000 0.200000 -0.400000
v 0.000000 0.200000 -0.600000
v 0.000000 0.200000 -0.800000
v -0.000000 0.400000 -0.200000
v 0.000000 0.400000 -0.400000
v 0.000000 0.400000 -0.600000
v 0.000000 0.400000 -0.800000
v -0.000000 0.600000 -0.200000
v 0.000000 0.600000 -0.400000
v 0.000000 0.600000 -0.600000
v 0.000000 0.600000 -0.800000
v -0.000000 0.800000 -0.200000
v 0.000000 0.800000 -0.400000
v 0.000000 0.800000 -0.600000
v 0.000000 0.800000 -0.800000
v 0.800000 0.200000 0.000000
v 0.600000 0.200000 -0.000000
v 0.400000 0.200000 -0.000000
v 0.200000 0.200000 -0.000000
v 0.800000 0.400000 0.000000
v 0.600000 0.400000 0.000000
v 0.400000 0.400000 -0.000000
v 0.200000 0.400000 -0.000000
v 0.800000 0.600000 0.000000
v 0.600000 0.600000 0.000000
v 0.400000 0.600000 0.000000
v 0.200000 0.600000 -0.000000
v 0.800000 0.800000 0.000000
v 0.600000 0.800000 0.000000
v 0.400000 0.800000 0.000000
v 0.200000 0.800000 -0.000000
v 1.000000 0.200000 -0.800000
v 1.000000 0.200000 -0.600000
v 1.000000 0.200000 -0.400000
v 1.000000 0.200000 -0.200000
v 1.000000 0.400000 -0.800000
v 1.000000 0.400000 -0.600000
v 1.000000 0.400000 -0.400000
v 1.000000 0.400000 -0.200000
v 1.000000 0.600000 -0.800000
v 1.000000 0.600000 -0.600000
v 1.000000 0.600000 -0.400000
v 1.000000 0.600000 -0.200000
v 1.000000 0.800000 -0.800000
v 1.000000 0.800000 -0.600000
v 1.000000 0.800000 -0.400000
v 1.000000 0.800000 -0.200000
v 0.800000 1.000000 -0.800000
v 0.800000 1.000000 -0.600000
v 0.800000 1.000000 -0.400000
v 0.800000 1.000000 -0.200000
v 0.600000 1.000000 -0.800000
v 0.600000 1.000000 -0.600000
v 0.600000 1.000000 -0.400000
v 0.600000 1.000000 -0.200000
v 0.400000 1.000000 -0.800000
v 0.400000 1.000000 -0.600000
v 0.400000 1.000000 -0.400000
v 0.400000 1.000000 -0.200000
v 0.200000 1.000000 -0.800000
v 0.200000 1.000000 -0.600000
v 0.200000 1.000000 -0.400000
v 0.200000 1.000000 -0.200000
v 0.800000 0.000000 -0.800000
v 0.600000 0.000000 -0.800000
v 0.400000 0.000000 -0.800000
v 0.200000 0.000000 -0.800000
v 0.800000 0.000000 -0.600000
v 0.600000 0.000000 -0.600000
v 0.400000 0.000000 -0.600000
v 0.200000 0.000000 -0.600000
v 0.800000 0.000000 -0.400000
v 0.600000 0.000000 -0.400000
v 0.400000 0.000000 -0.400000
v 0.200000 0.000000 -0.400000
v 0.800000 0.000000 -0.200000
v 0.600000 0.000000 -0.200000
v 0.400000 0.000000 -0.200000
v 0.200000 0.000000 -0.200000
vn 0.000000 -1.000000 0.000000
vn 0.000000 1.000000 0.000000
vn 1.000000 0.000000 0.000000
vn -0.000000 -0.000000 1.000000
vn -1.000000 -0.000000 -0.000000
vn 0.000000 0.000000 -1.000000
s off
f 24//1 3//1 29//1
f 53//2 7//2 52//2
f 44//3 6//3 28//3
f 52//4 7//4 36//4
f 56//5 8//5 40//5
f 72//6 16//6 4//6
f 60//6 40//6 8//6
f 64//6 39//6 40//6
f 64//6 68//6 38//6
f 68//6 72//6 37//6
f 20//6 57//6 45//6
f 57//6 58//6 46//6
f 58//6 59//6 47//6
f 59//6 60//6 48//6
f 19//6 61//6 57//6
f 61//6 62//6 58//6
f 62//6 63//6 59//6
f 63//6 64//6 60//6
f 18//6 65//6 61//6
f 65//6 66//6 62//6
f 66//6 67//6 63//6
f 67//6 68//6 64//6
f 17//6 69//6 65//6
f 69//6 70//6 66//6
f 70//6 71//6 67//6
f 71//6 72//6 68//6
f 1//6 13//6 69//6
f 13//6 14//6 70//6
f 14//6 15//6 71//6
f 15//6 16//6 72//6
f 32//5 76//5 37//5
f 80//5 38//5 37//5
f 80//5 84//5 39//5
f 88//5 40//5 39//5
f 33//5 73//5 29//5
f 29//5 73//5 74//5
f 74//5 75//5 31//5
f 31//5 75//5 76//5
f 34//5 77//5 73//5
f 77//5 78//5 74//5
f 78//5 79//5 75//5
f 79//5 80//5 76//5
f 35//5 81//5 77//5
f 81//5 82//5 78//5
f 82//5 83//5 79//5
f 79//5 83//5 84//5
f 36//5 85//5 81//5
f 81//5 85//5 86//5
f 82//5 86//5 87//5
f 87//5 88//5 84//5
f 7//5 53//5 85//5
f 53//5 54//5 86//5
f 54//5 55//5 87//5
f 55//5 56//5 88//5
f 92//4 33//4 3//4
f 96//4 34//4 33//4
f 100//4 35//4 34//4
f 104//4 36//4 35//4
f 25//4 89//4 21//4
f 89//4 90//4 22//4
f 90//4 91//4 23//4
f 91//4 92//4 24//4
f 26//4 93//4 89//4
f 93//4 94//4 90//4
f 94//4 95//4 91//4
f 95//4 96//4 92//4
f 27//4 97//4 93//4
f 97//4 98//4 94//4
f 98//4 99//4 95//4
f 99//4 100//4 96//4
f 28//4 101//4 97//4
f 101//4 102//4 98//4
f 102//4 103//4 99//4
f 103//4 104//4 100//4
f 6//4 49//4 101//4
f 49//4 50//4 102//4
f 50//4 51//4 103//4
f 51//4 52//4 104//4
f 108//3 25//3 2//3
f 112//3 26//3 25//3
f 116//3 27//3 26//3
f 120//3 28//3 27//3
f 17//3 105//3 9//3
f 105//3 106//3 10//3
f 106//3 107//3 11//3
f 107//3 108//3 12//3
f 18//3 109//3 105//3
f 109//3 110//3 106//3
f 110//3 111//3 107//3
f 111//3 112//3 108//3
f 19//3 113//3 109//3
f 113//3 114//3 110//3
f 114//3 115//3 111//3
f 115//3 116//3 112//3
f 20//3 117//3 113//3
f 117//3 118//3 114//3
f 118//3 119//3 115//3
f 119//3 120//3 116//3
f 5//3 41//3 117//3
f 41//3 42//3 118//3
f 42//3 43//3 119//3
f 43//3 44//3 120//3
f 124//2 49//2 6//2
f 128//2 50//2 49//2
f 128//2 132//2 51//2
f 136//2 52//2 51//2
f 45//2 121//2 41//2
f 121//2 122//2 42//2
f 122//2 123//2 43//2
f 123//2 124//2 44//2
f 46//2 125//2 121//2
f 125//2 126//2 122//2
f 126//2 127//2 123//2
f 127//2 128//2 124//2
f 47//2 129//2 125//2
f 129//2 130//2 126//2
f 126//2 130//2 131//2
f 127//2 131//2 132//2
f 48//2 133//2 129//2
f 129//2 133//2 134//2
f 130//2 134//2 135//2
f 131//2 135//2 136//2
f 48//2 8//2 56//2
f 133//2 56//2 55//2
f 55//2 54//2 135//2
f 54//2 53//2 136//2
f 16//1 140//1 32//1
f 144//1 31//1 32//1
f 144//1 148//1 30//1
f 152//1 29//1 30//1
f 9//1 137//1 13//1
f 137//1 138//1 14//1
f 14//1 138//1 139//1
f 139//1 140//1 16//1
f 10//1 141//1 137//1
f 141//1 142//1 138//1
f 138//1 142//1 143//1
f 143//1 144//1 140//1
f 10//1 11//1 145//1
f 141//1 145//1 146//1
f 142//1 146//1 147//1
f 143//1 147//1 148//1
f 11//1 12//1 149//1
f 145//1 149//1 150//1
f 146//1 150//1 151//1
f 151//1 152//1 148//1
f 12//1 2//1 21//1
f 149//1 21//1 22//1
f 22//1 23//1 151//1
f 23//1 24//1 152//1
f 152//1 24//1 29//1
f 136//2 53//2 52//2
f 120//3 44//3 28//3
f 104//4 52//4 36//4
f 88//5 56//5 40//5
f 37//6 72//6 4//6
f 48//6 60//6 8//6
f 60//6 64//6 40//6
f 39//6 64//6 38//6
f 38//6 68//6 37//6
f 5//6 20//6 45//6
f 45//6 57//6 46//6
f 46//6 58//6 47//6
f 47//6 59//6 48//6
f 20//6 19//6 57//6
f 57//6 61//6 58//6
f 58//6 62//6 59//6
f 59//6 63//6 60//6
f 19//6 18//6 61//6
f 61//6 65//6 62//6
f 62//6 66//6 63//6
f 63//6 67//6 64//6
f 18//6 17//6 65//6
f 65//6 69//6 66//6
f 66//6 70//6 67//6
f 67//6 71//6 68//6
f 17//6 1//6 69//6
f 69//6 13//6 70//6
f 70//6 14//6 71//6
f 71//6 15//6 72//6
f 4//5 32//5 37//5
f 76//5 80//5 37//5
f 38//5 80//5 39//5
f 84//5 88//5 39//5
f 3//5 33//5 29//5
f 30//5 29//5 74//5
f 30//5 74//5 31//5
f 32//5 31//5 76//5
f 33//5 34//5 73//5
f 73//5 77//5 74//5
f 74//5 78//5 75//5
f 75//5 79//5 76//5
f 34//5 35//5 77//5
f 77//5 81//5 78//5
f 78//5 82//5 79//5
f 80//5 79//5 84//5
f 35//5 36//5 81//5
f 82//5 81//5 86//5
f 83//5 82//5 87//5
f 83//5 87//5 84//5
f 36//5 7//5 85//5
f 85//5 53//5 86//5
f 86//5 54//5 87//5
f 87//5 55//5 88//5
f 24//4 92//4 3//4
f 92//4 96//4 33//4
f 96//4 100//4 34//4
f 100//4 104//4 35//4
f 2//4 25//4 21//4
f 21//4 89//4 22//4
f 22//4 90//4 23//4
f 23//4 91//4 24//4
f 25//4 26//4 89//4
f 89//4 93//4 90//4
f 90//4 94//4 91//4
f 91//4 95//4 92//4
f 26//4 27//4 93//4
f 93//4 97//4 94//4
f 94//4 98//4 95//4
f 95//4 99//4 96//4
f 27//4 28//4 97//4
f 97//4 101//4 98//4
f 98//4 102//4 99//4
f 99//4 103//4 100//4
f 28//4 6//4 101//4
f 101//4 49//4 102//4
f 102//4 50//4 103//4
f 103//4 51//4 104//4
f 12//3 108//3 2//3
f 108//3 112//3 25//3
f 112//3 116//3 26//3
f 116//3 120//3 27//3
f 1//3 17//3 9//3
f 9//3 105//3 10//3
f 10//3 106//3 11//3
f 11//3 107//3 12//3
f 17//3 18//3 105//3
f 105//3 109//3 106//3
f 106//3 110//3 107//3
f 107//3 111//3 108//3
f 18//3 19//3 109//3
f 109//3 113//3 110//3
f 110//3 114//3 111//3
f 111//3 115//3 112//3
f 19//3 20//3 113//3
f 113//3 117//3 114//3
f 114//3 118//3 115//3
f 115//3 119//3 116//3
f 20//3 5//3 117//3
f 117//3 41//3 118//3
f 118//3 42//3 119//3
f 119//3 43//3 120//3
f 44//2 124//2 6//2
f 124//2 128//2 49//2
f 50//2 128//2 51//2
f 132//2 136//2 51//2
f 5//2 45//2 41//2
f 41//2 121//2 42//2
f 42//2 122//2 43//2
f 43//2 123//2 44//2
f 45//2 46//2 121//2
f 121//2 125//2 122//2
f 122//2 126//2 123//2
f 123//2 127//2 124//2
f 46//2 47//2 125//2
f 125//2 129//2 126//2
f 127//2 126//2 131//2
f 128//2 127//2 132//2
f 47//2 48//2 129//2
f 130//2 129//2 134//2
f 131//2 130//2 135//2
f 132//2 131//2 136//2
f 133//2 48//2 56//2
f 134//2 133//2 55//2
f 134//2 55//2 135//2
f 135//2 54//2 136//2
f 4//1 16//1 32//1
f 140//1 144//1 32//1
f 31//1 144//1 30//1
f 148//1 152//1 30//1
f 1//1 9//1 13//1
f 13//1 137//1 14//1
f 15//1 14//1 139//1
f 15//1 139//1 16//1
f 9//1 10//1 137//1
f 137//1 141//1 138//1
f 139//1 138//1 143//1
f 139//1 143//1 140//1
f 141//1 10//1 145//1
f 142//1 141//1 146//1
f 143//1 142//1 147//1
f 144//1 143//1 148//1
f 145//1 11//1 149//1
f 146//1 145//1 150//1
f 147//1 146//1 151//1
f 147//1 151//1 148//1
f 149//1 12//1 21//1
f 150//1 149//1 22//1
f 150//1 22//1 151//1
f 151//1 23//1 152//1
